# xmcd
#
# Track frame offsets:
#	150
#	14089
#	28510
#	44724
#	63973
#	82471
#	96421
#	111535
#	129629
#	147657
#	167959
#	187582
#	205348
#	219003
#
# Disc length: 3125 seconds
#
# Revision: 1
# Processed by: cddbd v1.5.1PL0 Copyright (c) Steve Scherf et al.
# Submitted via: EasyCDDAExtractor 6.5.7.1
#
DISCID=d90c330e
DTITLE=Various Artist - Chama Crioula
DYEAR=2000
DGENRE=Gaúcha
TTITLE0=Wilson Paim - Hino Rio-Grandense
TTITLE1=Caverá - Os Homens de Preto
TTITLE2=Luiz Marenco - Destino de Peão
TTITLE3=Telmo de Lima Freitas - Pago Santo
TTITLE4=Paullo Costa - ÔH! de Casa
TTITLE5=Jayme Caetano Braun - Galo de Rinha
TTITLE6=José Cláudio Machado - Gaúcho
TTITLE7=Porca Véia - Sentado Sobre um Arreio
TTITLE8=Os Milongueiros - Pedindo pousada
TTITLE9=Joca Martins - Luzeiros da Alma
TTITLE10=Pedro Ortaça - Timbre de Galo
TTITLE11=Ribamar and Jorgito - Vida de Gaúcho
TTITLE12=Leonardo - Sistema Antigo
TTITLE13=Dante Ramon ledesma - De Sexta-Feira e paixão
EXTD=
EXTT0=
EXTT1=
EXTT2=
EXTT3=
EXTT4=
EXTT5=
EXTT6=
EXTT7=
EXTT8=
EXTT9=
EXTT10=
EXTT11=
EXTT12=
EXTT13=
PLAYORDER=
